<?xml version="1.0" standalone="no"?>
<!DOCTYPE svg PUBLIC "-//W3C//DTD SVG 20010904//EN"
 "http://www.w3.org/TR/2001/REC-SVG-20010904/DTD/svg10.dtd">
<svg version="1.0" xmlns="http://www.w3.org/2000/svg"
 width="1280.000000pt" height="1280.000000pt" viewBox="0 0 1280.000000 1280.000000"
 preserveAspectRatio="xMidYMid meet">
<metadata>
Created by potrace 1.15, written by Peter Selinger 2001-2017
</metadata>
<g transform="translate(0.000000,1280.000000) scale(0.100000,-0.100000)"
fill="#000000" stroke="none">
<path d="M6245 12784 c-340 -71 -562 -380 -667 -924 -22 -115 -22 -120 -25
-1507 l-4 -1391 -27 -10 c-317 -114 -2812 -1003 -4477 -1597 -473 -168 -900
-321 -950 -339 l-90 -33 -3 -716 c-1 -474 1 -717 8 -717 5 0 1253 191 2772
425 1519 234 2762 424 2764 422 1 -2 263 -3932 267 -4021 l2 -50 -1200 -736
-1200 -736 -3 -428 -2 -428 22 5 c13 3 84 17 158 32 217 42 1219 237 1670 325
228 45 505 99 615 120 110 21 273 53 362 71 l163 31 162 -31 c90 -18 253 -50
363 -71 110 -21 387 -75 615 -120 451 -88 1453 -283 1670 -325 74 -15 145 -29
158 -32 l22 -5 -2 428 -3 428 -1200 736 -1200 736 2 50 c4 89 266 4019 267
4021 2 2 1245 -188 2764 -422 1519 -234 2767 -425 2772 -425 7 0 9 243 8 717
l-3 717 -2770 1066 -2770 1065 -6 1315 c-5 1302 -5 1316 -27 1430 -89 464
-258 748 -517 871 -139 66 -306 85 -460 53z"/>
</g>
</svg>
