<?xml version="1.0" ?><svg width="64px" height="64px" viewBox="0 0 64 64" data-name="Layer 1" id="Layer_1" xmlns="http://www.w3.org/2000/svg"><polygon points="22.051 27.029 22.05 27.027 21.434 26 15 26 15 29 23.234 29 22.052 27.029 22.051 27.029"/><polygon points="33.434 26 29.766 26 31.566 29 35.234 29 33.434 26"/><path d="M50,14h-.61a1,1,0,0,1-.943-.666,9.486,9.486,0,0,0-17.573-.795,1,1,0,0,1-1.619.285A9.5,9.5,0,0,0,13,19.5V23a1,1,0,0,1-1,1H9A5,5,0,0,0,9,34h1V31a2,2,0,0,1,2-2h1V26a2,2,0,0,1,2-2h6.434a1.988,1.988,0,0,1,1.162.394A1.971,1.971,0,0,1,23.766,24h3.668a1.988,1.988,0,0,1,1.162.394A1.971,1.971,0,0,1,29.766,24h3.668a2.01,2.01,0,0,1,1.714.97L37.566,29H52a2,2,0,0,1,2,2v2.159A10,10,0,0,0,50,14Zm6,13H54V25h2Zm-2-4a4,4,0,0,0-4-4V17a6.006,6.006,0,0,1,6,6Z"/><polygon points="28.052 27.029 28.051 27.029 28.05 27.027 27.434 26 23.766 26 25.566 29 29.234 29 28.052 27.029"/><path d="M50,36H40V34H50a9.983,9.983,0,0,0,2-.2V31H12V57H52V35.819A11.986,11.986,0,0,1,50,36ZM36,34h2v2H36Zm-4,0h2v2H32Zm-4,0h2v2H28Zm-4,0h2v2H24ZM39,55H25V53H39Zm11,0H41V53h9Zm0-4H25V49H50Z"/></svg>